<svg width="24" height="24" viewBox="0 0 24 24" fill="none" xmlns="http://www.w3.org/2000/svg">
<path d="M5.83999 10.16C6.11999 10.44 6.56999 10.44 6.83999 10.16L11.28 5.72V20.01C11.28 20.4 11.6 20.72 11.99 20.72C12.38 20.72 12.7 20.4 12.7 20.01V5.71L17.14 10.15C17.42 10.43 17.87 10.43 18.14 10.15C18.41 9.87 18.42 9.42 18.14 9.15L12.48 3.49C12.42 3.42 12.34 3.37 12.25 3.34C12.16 3.3 12.07 3.28 11.98 3.28C11.89 3.28 11.79 3.3 11.71 3.34C11.62 3.38 11.55 3.43 11.48 3.49L5.81999 9.15C5.53999 9.43 5.53999 9.88 5.81999 10.15L5.83999 10.16Z" fill="currentColor"/>
</svg>


