<svg width="24" height="24" viewBox="0 0 24 24" fill="none" xmlns="http://www.w3.org/2000/svg">
<path d="M9.99999 4.28999C9.60999 4.28999 9.28999 4.60999 9.28999 4.99999V19C9.28999 19.39 9.60999 19.71 9.99999 19.71C10.39 19.71 10.71 19.39 10.71 19V4.99999C10.71 4.60999 10.39 4.28999 9.99999 4.28999Z" fill="currentColor"/>
<path d="M14 6.28999C13.61 6.28999 13.29 6.60999 13.29 6.99999V17C13.29 17.39 13.61 17.71 14 17.71C14.39 17.71 14.71 17.39 14.71 17V6.99999C14.71 6.60999 14.39 6.28999 14 6.28999Z" fill="currentColor"/>
<path d="M18 10.29C17.61 10.29 17.29 10.61 17.29 11V13C17.29 13.39 17.61 13.71 18 13.71C18.39 13.71 18.71 13.39 18.71 13V11C18.71 10.61 18.39 10.29 18 10.29Z" fill="currentColor"/>
<path d="M5.99999 8.28999C5.60999 8.28999 5.28999 8.60999 5.28999 8.99999V15C5.28999 15.39 5.60999 15.71 5.99999 15.71C6.38999 15.71 6.70999 15.39 6.70999 15V8.99999C6.70999 8.60999 6.38999 8.28999 5.99999 8.28999Z" fill="currentColor"/>
</svg>

